<svg xmlns="http://www.w3.org/2000/svg" xmlns:xlink="http://www.w3.org/1999/xlink" width="496" zoomAndPan="magnify" viewBox="0 0 372 253.499997" height="338" preserveAspectRatio="xMidYMid meet" version="1.2"><defs><clipPath id="7db140dbad"><path d="M 0.367188 0 L 371.632812 0 L 371.632812 253 L 0.367188 253 Z M 0.367188 0 "/></clipPath><clipPath id="70b1b078b1"><path d="M 32.972656 3 L 263 3 L 263 228.492188 L 32.972656 228.492188 Z M 32.972656 3 "/></clipPath><clipPath id="4f4f007c8e"><path d="M 32.972656 199 L 263 199 L 263 228.492188 L 32.972656 228.492188 Z M 32.972656 199 "/></clipPath><clipPath id="e7cae302f4"><path d="M 0.367188 57 L 151 57 L 151 253 L 0.367188 253 Z M 0.367188 57 "/></clipPath><clipPath id="795f55915e"><path d="M 0.367188 68 L 185 68 L 185 253 L 0.367188 253 Z M 0.367188 68 "/></clipPath><clipPath id="7b4e1b7682"><path d="M 78 171 L 249 171 L 249 253 L 78 253 Z M 78 171 "/></clipPath></defs><g id="0f7278fa62"><g clip-rule="nonzero" clip-path="url(#7db140dbad)"><path style=" stroke:none;fill-rule:nonzero;fill:#ffffff;fill-opacity:1;" d="M 0.367188 0 L 371.632812 0 L 371.632812 253 L 0.367188 253 Z M 0.367188 0 "/></g><g clip-rule="nonzero" clip-path="url(#70b1b078b1)"><path style=" stroke:none;fill-rule:evenodd;fill:#e4508a;fill-opacity:1;" d="M 96.984375 259.425781 C 98.28125 260.746094 98.261719 262.875 96.941406 264.175781 C 95.617188 265.476562 93.488281 265.457031 92.1875 264.132812 C 38.21875 209.183594 24.828125 153.796875 34.359375 108.398438 C 47.800781 44.367188 107.007812 0 164.1875 3.460938 C 202.382812 5.773438 239.855469 29.25 262.175781 82.667969 C 262.890625 84.378906 262.082031 86.347656 260.371094 87.0625 C 258.660156 87.777344 256.691406 86.96875 255.976562 85.257812 C 234.910156 34.847656 199.824219 12.347656 163.785156 10.167969 C 109.609375 6.886719 53.671875 49.117188 40.933594 109.777344 C 31.769531 153.449219 45.070312 206.566406 96.984375 259.425781 Z M 96.984375 259.425781 "/></g><g clip-rule="nonzero" clip-path="url(#4f4f007c8e)"><path style=" stroke:none;fill-rule:evenodd;fill:#e4508a;fill-opacity:1;" d="M 198.859375 323.554688 C 199.027344 322.976562 199.125 322.304688 199.175781 321.550781 C 199.433594 317.691406 198.433594 312.128906 196.503906 305.511719 C 188.632812 278.511719 165.148438 234.933594 138.707031 216.742188 C 137.347656 215.808594 136.867188 214.023438 137.578125 212.53125 C 138.285156 211.042969 139.96875 210.285156 141.554688 210.75 C 184.191406 223.207031 224.050781 225.121094 257.070312 200.527344 C 258.558594 199.417969 260.664062 199.726562 261.769531 201.214844 C 262.878906 202.703125 262.570312 204.808594 261.082031 205.917969 C 230.191406 228.925781 193.648438 230.292969 154.390625 221.089844 C 176.949219 243.066406 195.949219 279.601562 202.953125 303.632812 C 205.566406 312.59375 206.46875 319.929688 205.574219 324.351562 C 205.003906 327.171875 203.707031 329.09375 202.027344 330.1875 C 201.394531 330.601562 200.636719 330.785156 199.882812 330.714844 C 197.386719 330.480469 195.058594 329.378906 192.855469 327.59375 C 191.800781 326.742188 190.773438 325.71875 189.75 324.578125 C 186.921875 339.019531 184 348.394531 181.097656 353.453125 C 179.136719 356.875 176.96875 358.640625 174.980469 359.269531 C 172.492188 360.054688 169.894531 359.472656 167.378906 357.0625 C 164.703125 354.507812 161.894531 349.171875 159.117188 341.46875 C 147.390625 366.746094 131.808594 382.640625 114.203125 392.019531 C 95.316406 402.074219 74.046875 404.625 52.511719 402.984375 C 46.4375 411.128906 40.121094 416.769531 27.480469 417.542969 C 23.535156 417.785156 19.589844 416.410156 15.980469 413.777344 C 11.140625 410.246094 6.867188 404.382812 4.109375 397.683594 C 3.402344 395.96875 4.21875 394.003906 5.933594 393.296875 C 7.648438 392.589844 9.613281 393.410156 10.320312 395.125 C 12.578125 400.601562 15.984375 405.460938 19.941406 408.351562 C 22.195312 409.992188 24.609375 410.988281 27.070312 410.835938 C 37.976562 410.171875 42.945312 404.8125 48.179688 397.523438 C 48.871094 396.558594 50.019531 396.03125 51.203125 396.136719 C 72.070312 397.960938 92.753906 395.824219 111.042969 386.089844 C 129.316406 376.355469 145.125 359.027344 156.429688 330.714844 C 156.960938 329.386719 158.277344 328.539062 159.707031 328.605469 C 161.136719 328.671875 162.371094 329.636719 162.773438 331.007812 C 165.554688 340.40625 168.234375 347.300781 170.964844 350.980469 C 171.488281 351.6875 171.988281 352.25 172.507812 352.621094 C 172.675781 352.738281 172.792969 352.914062 172.957031 352.859375 C 173.382812 352.726562 173.734375 352.308594 174.164062 351.777344 C 174.953125 350.789062 175.71875 349.410156 176.503906 347.640625 C 179.214844 341.527344 181.847656 331.25 184.46875 316.167969 C 184.699219 314.851562 185.691406 313.792969 186.992188 313.480469 C 188.292969 313.164062 189.65625 313.65625 190.464844 314.726562 C 192.363281 317.25 194.171875 319.65625 196.074219 321.476562 C 196.988281 322.347656 197.890625 323.09375 198.859375 323.554688 Z M 198.859375 323.554688 "/></g><path style=" stroke:none;fill-rule:evenodd;fill:#e4508a;fill-opacity:1;" d="M 259.027344 80.605469 C 306.878906 79.90625 345.722656 115.046875 360.847656 152.878906 C 371.128906 178.597656 370.394531 205.46875 354.832031 223.476562 C 353.71875 224.765625 351.820312 225.015625 350.410156 224.066406 C 325.464844 207.238281 294.929688 201.929688 259.507812 206.554688 C 259.488281 206.558594 259.464844 206.558594 259.441406 206.5625 C 234.839844 209.253906 216.417969 203.398438 204.113281 193.128906 C 191.585938 182.679688 185.285156 167.605469 185.28125 151.785156 C 185.269531 120.789062 209.554688 86.675781 258.667969 80.628906 C 258.785156 80.613281 258.90625 80.605469 259.027344 80.605469 Z M 259.308594 87.320312 C 214.582031 92.902344 191.992188 123.515625 192.003906 151.785156 C 192.007812 165.617188 197.457031 178.832031 208.414062 187.96875 C 219.582031 197.285156 236.359375 202.320312 258.675781 199.886719 C 294.683594 195.191406 325.859375 200.445312 351.585938 216.804688 C 363.769531 200.625 363.457031 177.503906 354.609375 155.375 C 340.425781 119.894531 304.160156 86.757812 259.308594 87.320312 Z M 259.308594 87.320312 "/><path style=" stroke:none;fill-rule:evenodd;fill:#e4508a;fill-opacity:1;" d="M 103.789062 105.703125 C 104.015625 105.460938 104.171875 105.15625 104.398438 104.914062 C 104.507812 104.796875 104.65625 104.710938 104.796875 104.632812 C 104.933594 104.550781 105.082031 104.484375 105.234375 104.429688 C 105.390625 104.378906 105.546875 104.339844 105.707031 104.316406 C 105.867188 104.292969 106.03125 104.285156 106.191406 104.292969 C 106.359375 104.300781 106.523438 104.328125 106.679688 104.367188 C 106.683594 104.367188 107.160156 104.542969 107.160156 104.542969 C 107.300781 104.632812 107.457031 104.707031 107.589844 104.8125 C 107.722656 104.910156 107.84375 105.027344 107.949219 105.148438 C 108.058594 105.273438 108.152344 105.40625 108.234375 105.546875 C 108.3125 105.6875 108.382812 105.835938 108.433594 105.988281 C 108.488281 106.140625 108.527344 106.296875 108.546875 106.457031 C 108.570312 106.617188 108.578125 106.78125 108.570312 106.945312 C 108.5625 107.109375 108.539062 107.273438 108.496094 107.433594 C 108.410156 107.761719 108.40625 107.761719 108.238281 108.054688 C 106.179688 111.667969 102.941406 113.078125 99.234375 112.34375 C 98.046875 112.109375 95.042969 111.335938 90.820312 107.769531 C 90 107.074219 89.386719 106.488281 89.191406 106.296875 C 89.097656 106.207031 89.089844 106.214844 89.011719 106.113281 C 88.960938 106.050781 88.691406 105.703125 88.746094 105.183594 C 88.773438 104.929688 88.871094 104.746094 88.890625 104.710938 C 88.890625 104.710938 89.035156 104.496094 89.035156 104.496094 C 89.097656 104.4375 89.15625 104.371094 89.222656 104.316406 C 89.28125 104.269531 89.628906 103.996094 90.152344 104.050781 C 90.40625 104.078125 90.589844 104.179688 90.625 104.199219 C 90.648438 104.210938 90.675781 104.226562 90.898438 104.390625 C 94.789062 107.230469 98.746094 108.863281 101.195312 108.300781 C 101.820312 108.160156 102.28125 107.886719 102.644531 107.546875 C 103.3125 106.917969 103.65625 106.050781 103.789062 105.703125 Z M 103.789062 105.703125 C 103.789062 105.703125 103.789062 105.707031 103.789062 105.707031 Z M 103.789062 105.703125 "/><path style=" stroke:none;fill-rule:evenodd;fill:#e4508a;fill-opacity:1;" d="M 100.882812 118.148438 C 101.105469 117.898438 101.253906 117.59375 101.476562 117.34375 C 101.585938 117.226562 101.730469 117.140625 101.871094 117.054688 C 102.007812 116.972656 102.15625 116.902344 102.308594 116.847656 C 102.460938 116.792969 102.617188 116.75 102.777344 116.726562 C 102.9375 116.699219 103.101562 116.691406 103.261719 116.695312 C 103.425781 116.703125 103.589844 116.722656 103.753906 116.761719 C 103.753906 116.761719 104.230469 116.929688 104.230469 116.929688 C 104.378906 117.015625 104.53125 117.089844 104.667969 117.191406 C 104.800781 117.289062 104.925781 117.402344 105.035156 117.523438 C 105.144531 117.644531 105.242188 117.777344 105.324219 117.914062 C 105.40625 118.054688 105.476562 118.199219 105.53125 118.351562 C 105.585938 118.503906 105.628906 118.660156 105.652344 118.820312 C 105.679688 118.980469 105.691406 119.144531 105.683594 119.308594 C 105.664062 119.875 105.460938 120.257812 105.421875 120.332031 C 102.460938 125.957031 97.921875 126.40625 96.285156 126.445312 C 91.5 126.5625 86.390625 123.53125 82.371094 118.96875 C 82.21875 118.800781 82.183594 118.742188 82.167969 118.71875 C 82.128906 118.65625 81.890625 118.28125 82 117.769531 C 82.050781 117.519531 82.167969 117.347656 82.191406 117.3125 C 82.191406 117.3125 82.355469 117.117188 82.355469 117.117188 C 82.425781 117.0625 82.488281 117.003906 82.558594 116.957031 C 82.625 116.914062 82.996094 116.675781 83.511719 116.785156 C 83.761719 116.835938 83.933594 116.957031 83.964844 116.976562 C 83.992188 116.996094 84.027344 117.019531 84.246094 117.21875 C 89.121094 121.695312 94.660156 123.570312 98.019531 121.722656 C 99.765625 120.761719 100.535156 119.015625 100.882812 118.148438 Z M 100.882812 118.148438 L 100.882812 118.144531 C 100.882812 118.144531 100.882812 118.148438 100.882812 118.148438 Z M 100.882812 118.148438 "/><path style=" stroke:none;fill-rule:evenodd;fill:#e4508a;fill-opacity:1;" d="M 110.890625 74.917969 C 112.5 58.515625 121.683594 50.332031 131.085938 49.53125 C 140.539062 48.726562 150.777344 55.355469 154.625 69.621094 C 154.84375 70.421875 154.648438 71.277344 154.113281 71.910156 C 153.574219 72.539062 152.761719 72.867188 151.9375 72.785156 C 138.300781 71.394531 125.671875 72.644531 114.390625 77.480469 C 113.570312 77.832031 112.628906 77.722656 111.910156 77.195312 C 111.191406 76.671875 110.800781 75.804688 110.890625 74.917969 Z M 116.535156 71.242188 C 126.398438 67.792969 137.148438 66.675781 148.605469 67.445312 C 145.039062 58.460938 138.191406 53.984375 131.511719 54.554688 C 124.804688 55.125 118.714844 60.75 116.535156 71.242188 Z M 116.535156 71.242188 "/><path style=" stroke:none;fill-rule:evenodd;fill:#e4508a;fill-opacity:1;" d="M 327.609375 206.214844 C 327.417969 207.574219 326.15625 208.523438 324.796875 208.332031 C 323.433594 208.140625 322.484375 206.882812 322.675781 205.519531 C 323.789062 197.582031 325.277344 192.316406 327.007812 188.898438 C 328.363281 186.214844 329.914062 184.546875 331.542969 183.527344 C 334.324219 181.792969 337.453125 181.851562 340.878906 182.71875 C 343.566406 183.402344 346.472656 184.589844 349.53125 185.238281 C 353.464844 186.070312 357.699219 185.878906 362.035156 181.652344 C 363.019531 180.691406 364.601562 180.714844 365.558594 181.699219 C 366.519531 182.683594 366.496094 184.261719 365.511719 185.21875 C 357.789062 192.742188 350.351562 190.902344 343.742188 188.789062 C 341.695312 188.132812 339.746094 187.453125 337.925781 187.195312 C 336.582031 187.003906 335.320312 187.039062 334.183594 187.75 C 332.867188 188.574219 331.773438 190.160156 330.742188 192.730469 C 329.5 195.820312 328.457031 200.175781 327.609375 206.214844 Z M 327.609375 206.214844 "/><path style=" stroke:none;fill-rule:evenodd;fill:#e4508a;fill-opacity:1;" d="M 136.738281 81.988281 C 156.667969 81.988281 173.003906 100.066406 173.003906 122.507812 C 173.003906 144.953125 156.667969 163.03125 136.738281 163.03125 C 116.808594 163.03125 100.46875 144.953125 100.46875 122.507812 C 100.46875 100.066406 116.808594 81.988281 136.738281 81.988281 Z M 136.738281 87.132812 C 119.472656 87.132812 105.613281 103.0625 105.613281 122.507812 C 105.613281 141.957031 119.472656 157.886719 136.738281 157.886719 C 154.007812 157.886719 167.859375 141.957031 167.859375 122.507812 C 167.859375 103.0625 154.007812 87.132812 136.738281 87.132812 Z M 136.738281 87.132812 "/><path style=" stroke:none;fill-rule:evenodd;fill:#e4508a;fill-opacity:1;" d="M 327.777344 128.058594 C 331.628906 126.023438 337.054688 128.335938 339.769531 133.472656 C 342.484375 138.609375 341.339844 144.394531 337.488281 146.429688 C 333.636719 148.464844 328.210938 146.15625 325.496094 141.015625 C 322.78125 135.878906 323.925781 130.09375 327.777344 128.058594 Z M 328.851562 130.085938 C 327.761719 130.660156 327.019531 131.679688 326.621094 132.910156 C 325.96875 134.949219 326.25 137.539062 327.523438 139.945312 C 328.792969 142.351562 330.777344 144.042969 332.828125 144.652344 C 334.070312 145.019531 335.328125 144.976562 336.417969 144.402344 C 337.507812 143.828125 338.25 142.808594 338.644531 141.578125 C 339.296875 139.542969 339.015625 136.949219 337.742188 134.542969 C 336.472656 132.140625 334.488281 130.445312 332.441406 129.835938 C 331.199219 129.46875 329.941406 129.507812 328.851562 130.085938 Z M 328.851562 130.085938 "/><path style=" stroke:none;fill-rule:nonzero;fill:#e4508a;fill-opacity:1;" d="M 170.371094 127.535156 C 170.308594 128.445312 170.210938 129.347656 170.066406 130.246094 C 169.921875 131.148438 169.738281 132.039062 169.511719 132.917969 C 169.289062 133.800781 169.023438 134.667969 168.714844 135.523438 C 168.410156 136.375 168.066406 137.210938 167.679688 138.03125 C 167.296875 138.851562 166.875 139.648438 166.417969 140.421875 C 165.960938 141.199219 165.46875 141.949219 164.941406 142.675781 C 164.417969 143.398438 163.855469 144.097656 163.265625 144.765625 C 162.675781 145.433594 162.054688 146.066406 161.402344 146.671875 C 160.753906 147.273438 160.078125 147.84375 159.375 148.378906 C 158.671875 148.910156 157.949219 149.40625 157.199219 149.867188 C 156.453125 150.324219 155.6875 150.746094 154.898438 151.125 C 154.113281 151.503906 153.3125 151.84375 152.496094 152.136719 C 151.675781 152.433594 150.847656 152.6875 150.007812 152.898438 C 149.167969 153.109375 148.320312 153.277344 147.464844 153.398438 C 146.609375 153.523438 145.753906 153.601562 144.890625 153.632812 C 144.027344 153.667969 143.167969 153.65625 142.308594 153.601562 C 141.449219 153.542969 140.59375 153.445312 139.742188 153.300781 C 138.894531 153.15625 138.050781 152.964844 137.21875 152.734375 C 136.386719 152.503906 135.570312 152.226562 134.761719 151.910156 C 133.957031 151.59375 133.167969 151.234375 132.394531 150.835938 C 131.625 150.433594 130.871094 149.996094 130.140625 149.519531 C 129.410156 149.039062 128.703125 148.527344 128.023438 147.972656 C 127.339844 147.421875 126.683594 146.835938 126.058594 146.214844 C 125.429688 145.597656 124.832031 144.945312 124.265625 144.261719 C 123.699219 143.582031 123.167969 142.871094 122.667969 142.132812 C 122.167969 141.394531 121.703125 140.628906 121.273438 139.84375 C 120.84375 139.054688 120.453125 138.246094 120.101562 137.417969 C 119.746094 136.589844 119.433594 135.746094 119.160156 134.882812 C 118.882812 134.023438 118.648438 133.148438 118.457031 132.261719 C 118.265625 131.375 118.113281 130.480469 118.003906 129.578125 C 117.890625 128.675781 117.824219 127.769531 117.800781 126.859375 C 117.773438 125.949219 117.789062 125.039062 117.847656 124.128906 C 117.90625 123.21875 118.007812 122.3125 118.152344 121.414062 C 118.296875 120.515625 118.480469 119.625 118.703125 118.742188 C 118.929688 117.863281 119.195312 116.996094 119.503906 116.140625 C 119.808594 115.285156 120.152344 114.449219 120.539062 113.628906 C 120.921875 112.8125 121.339844 112.015625 121.796875 111.238281 C 122.257812 110.460938 122.75 109.710938 123.273438 108.988281 C 123.800781 108.261719 124.359375 107.566406 124.953125 106.898438 C 125.542969 106.230469 126.164062 105.59375 126.8125 104.992188 C 127.464844 104.386719 128.140625 103.816406 128.84375 103.285156 C 129.542969 102.75 130.269531 102.253906 131.015625 101.796875 C 131.765625 101.335938 132.53125 100.917969 133.320312 100.539062 C 134.105469 100.15625 134.90625 99.820312 135.722656 99.523438 C 136.539062 99.226562 137.371094 98.972656 138.210938 98.761719 C 139.050781 98.550781 139.898438 98.386719 140.753906 98.261719 C 141.609375 98.140625 142.464844 98.0625 143.328125 98.027344 C 144.1875 97.996094 145.050781 98.003906 145.910156 98.0625 C 146.769531 98.117188 147.625 98.21875 148.476562 98.363281 C 149.324219 98.507812 150.167969 98.695312 151 98.925781 C 151.832031 99.160156 152.648438 99.433594 153.457031 99.75 C 154.261719 100.070312 155.050781 100.425781 155.824219 100.828125 C 156.59375 101.226562 157.347656 101.664062 158.078125 102.144531 C 158.808594 102.621094 159.515625 103.136719 160.195312 103.6875 C 160.878906 104.238281 161.535156 104.824219 162.160156 105.445312 C 162.789062 106.066406 163.386719 106.714844 163.953125 107.398438 C 164.519531 108.082031 165.050781 108.792969 165.550781 109.53125 C 166.050781 110.269531 166.515625 111.03125 166.945312 111.820312 C 167.371094 112.605469 167.765625 113.414062 168.117188 114.242188 C 168.472656 115.070312 168.785156 115.914062 169.058594 116.777344 C 169.335938 117.640625 169.566406 118.511719 169.761719 119.398438 C 169.953125 120.285156 170.105469 121.179688 170.214844 122.082031 C 170.324219 122.988281 170.394531 123.894531 170.417969 124.804688 C 170.445312 125.714844 170.429688 126.625 170.371094 127.535156 Z M 170.371094 127.535156 "/><path style=" stroke:none;fill-rule:nonzero;fill:#e4508a;fill-opacity:1;" d="M 238.632812 108.289062 C 238.632812 108.617188 238.601562 108.941406 238.535156 109.261719 C 238.472656 109.585938 238.382812 109.898438 238.257812 110.203125 C 238.136719 110.503906 237.984375 110.792969 237.804688 111.066406 C 237.628906 111.339844 237.425781 111.589844 237.199219 111.824219 C 236.96875 112.054688 236.722656 112.261719 236.457031 112.445312 C 236.1875 112.628906 235.90625 112.78125 235.609375 112.90625 C 235.3125 113.035156 235.007812 113.128906 234.691406 113.191406 C 234.375 113.257812 234.058594 113.289062 233.734375 113.289062 C 233.414062 113.289062 233.097656 113.257812 232.78125 113.191406 C 232.464844 113.128906 232.160156 113.035156 231.863281 112.90625 C 231.566406 112.78125 231.285156 112.628906 231.015625 112.445312 C 230.75 112.261719 230.5 112.054688 230.273438 111.824219 C 230.046875 111.589844 229.84375 111.339844 229.664062 111.066406 C 229.488281 110.792969 229.335938 110.503906 229.214844 110.203125 C 229.089844 109.898438 228.996094 109.585938 228.933594 109.261719 C 228.871094 108.941406 228.839844 108.617188 228.839844 108.289062 C 228.839844 107.960938 228.871094 107.632812 228.933594 107.3125 C 228.996094 106.988281 229.089844 106.675781 229.214844 106.375 C 229.335938 106.070312 229.488281 105.78125 229.664062 105.507812 C 229.84375 105.234375 230.046875 104.984375 230.273438 104.75 C 230.5 104.519531 230.75 104.3125 231.015625 104.128906 C 231.285156 103.945312 231.566406 103.792969 231.863281 103.667969 C 232.160156 103.542969 232.464844 103.445312 232.78125 103.382812 C 233.097656 103.320312 233.414062 103.285156 233.734375 103.285156 C 234.058594 103.285156 234.375 103.320312 234.691406 103.382812 C 235.007812 103.445312 235.3125 103.542969 235.609375 103.667969 C 235.90625 103.792969 236.1875 103.945312 236.457031 104.128906 C 236.722656 104.3125 236.96875 104.519531 237.199219 104.75 C 237.425781 104.984375 237.628906 105.234375 237.804688 105.507812 C 237.984375 105.78125 238.136719 106.070312 238.257812 106.375 C 238.382812 106.675781 238.472656 106.988281 238.535156 107.3125 C 238.601562 107.632812 238.632812 107.960938 238.632812 108.289062 Z M 238.632812 108.289062 "/><g clip-rule="nonzero" clip-path="url(#e7cae302f4)"><path style="fill:none;stroke-width:19;stroke-linecap:butt;stroke-linejoin:miter;stroke:#ffffff;stroke-opacity:1;stroke-miterlimit:4;" d="M 3.407968 8.868572 C 64.778882 32.455202 115.570971 32.454271 155.789395 8.867763 " transform="matrix(0.25378,0.659325,-0.659325,0.25378,40.880839,129.213312)"/></g><g clip-rule="nonzero" clip-path="url(#795f55915e)"><path style="fill:none;stroke-width:11;stroke-linecap:round;stroke-linejoin:miter;stroke:#e4508a;stroke-opacity:1;stroke-miterlimit:4;" d="M 7.807682 7.751616 C 76.751566 89.291931 145.689275 89.261758 214.632606 7.657242 " transform="matrix(0.500632,0.494721,-0.494721,0.500632,37.347989,104.307449)"/></g><g clip-rule="nonzero" clip-path="url(#7b4e1b7682)"><path style="fill:none;stroke-width:13;stroke-linecap:butt;stroke-linejoin:miter;stroke:#ffffff;stroke-opacity:1;stroke-miterlimit:4;" d="M 4.663242 13.143996 C 13.274555 4.286776 44.955835 4.286156 99.712477 13.140955 " transform="matrix(0.691084,0.151054,-0.151054,0.691084,129.071353,215.501051)"/></g></g></svg>