<svg xmlns="http://www.w3.org/2000/svg" xmlns:xlink="http://www.w3.org/1999/xlink" width="72" zoomAndPan="magnify" viewBox="0 0 54 54" height="72" preserveAspectRatio="xMidYMid meet" version="1.2"><defs><clipPath id="d45a0c4ee6"><path d="M 0.492188 0 L 53.507812 0 L 53.507812 53.019531 L 0.492188 53.019531 Z M 0.492188 0 "/></clipPath><clipPath id="0c217be2c4"><path d="M 7.46875 11.066406 L 34 11.066406 L 34 37.574219 L 7.46875 37.574219 Z M 7.46875 11.066406 "/></clipPath><clipPath id="f7759f468b"><path d="M 7.46875 34 L 34 34 L 34 37.574219 L 7.46875 37.574219 Z M 7.46875 34 "/></clipPath><clipPath id="064249ef0a"><path d="M 25 20 L 46.496094 20 L 46.496094 37 L 25 37 Z M 25 20 "/></clipPath><clipPath id="bbe7e6fb21"><path d="M 0.492188 18 L 21 18 L 21 47 L 0.492188 47 Z M 0.492188 18 "/></clipPath><clipPath id="f8e46e027d"><path d="M 0.492188 0 L 53.394531 0 L 53.394531 52.902344 L 0.492188 52.902344 Z M 0.492188 0 "/></clipPath><clipPath id="becd3149f4"><path d="M 26.941406 0 C 12.332031 0 0.492188 11.84375 0.492188 26.453125 C 0.492188 41.058594 12.332031 52.902344 26.941406 52.902344 C 41.550781 52.902344 53.394531 41.058594 53.394531 26.453125 C 53.394531 11.84375 41.550781 0 26.941406 0 Z M 26.941406 0 "/></clipPath></defs><g id="5cc240b141"><g clip-rule="nonzero" clip-path="url(#d45a0c4ee6)"><path style=" stroke:none;fill-rule:nonzero;fill:#ffffff;fill-opacity:1;" d="M 0.492188 0 L 53.507812 0 L 53.507812 53.019531 L 0.492188 53.019531 Z M 0.492188 0 "/></g><g clip-rule="nonzero" clip-path="url(#0c217be2c4)"><path style=" stroke:none;fill-rule:evenodd;fill:#e4508a;fill-opacity:1;" d="M 14.847656 40.925781 C 14.996094 41.078125 14.992188 41.320312 14.839844 41.472656 C 14.6875 41.621094 14.445312 41.617188 14.292969 41.464844 C 8.082031 35.140625 6.542969 28.769531 7.636719 23.542969 C 9.1875 16.171875 16 11.066406 22.582031 11.464844 C 26.976562 11.730469 31.289062 14.433594 33.859375 20.582031 C 33.941406 20.777344 33.847656 21.003906 33.652344 21.085938 C 33.453125 21.167969 33.226562 21.078125 33.144531 20.878906 C 30.71875 15.078125 26.683594 12.488281 22.535156 12.238281 C 16.300781 11.859375 9.859375 16.71875 8.394531 23.703125 C 7.339844 28.726562 8.871094 34.839844 14.847656 40.925781 Z M 14.847656 40.925781 "/></g><g clip-rule="nonzero" clip-path="url(#f7759f468b)"><path style=" stroke:none;fill-rule:evenodd;fill:#e4508a;fill-opacity:1;" d="M 26.570312 48.304688 C 26.589844 48.238281 26.601562 48.160156 26.609375 48.074219 C 26.636719 47.632812 26.523438 46.992188 26.300781 46.230469 C 25.394531 43.121094 22.691406 38.105469 19.648438 36.011719 C 19.492188 35.90625 19.4375 35.699219 19.519531 35.527344 C 19.597656 35.355469 19.792969 35.269531 19.976562 35.324219 C 24.882812 36.757812 29.46875 36.976562 33.269531 34.144531 C 33.441406 34.019531 33.683594 34.054688 33.8125 34.226562 C 33.9375 34.394531 33.902344 34.640625 33.734375 34.765625 C 30.175781 37.414062 25.972656 37.570312 21.453125 36.511719 C 24.050781 39.042969 26.238281 43.246094 27.042969 46.011719 C 27.34375 47.042969 27.445312 47.886719 27.34375 48.398438 C 27.277344 48.722656 27.128906 48.941406 26.9375 49.070312 C 26.863281 49.117188 26.777344 49.136719 26.6875 49.128906 C 26.402344 49.101562 26.132812 48.976562 25.878906 48.769531 C 25.757812 48.671875 25.640625 48.554688 25.523438 48.421875 C 25.199219 50.085938 24.859375 51.164062 24.527344 51.746094 C 24.300781 52.140625 24.050781 52.34375 23.824219 52.414062 C 23.535156 52.507812 23.238281 52.441406 22.949219 52.160156 C 22.640625 51.867188 22.316406 51.253906 21.996094 50.367188 C 20.648438 53.277344 18.855469 55.105469 16.828125 56.183594 C 14.652344 57.34375 12.207031 57.636719 9.726562 57.449219 C 9.027344 58.386719 8.300781 59.035156 6.847656 59.125 C 6.394531 59.152344 5.9375 58.992188 5.523438 58.691406 C 4.964844 58.28125 4.472656 57.609375 4.15625 56.835938 C 4.074219 56.640625 4.167969 56.414062 4.367188 56.332031 C 4.5625 56.25 4.789062 56.34375 4.871094 56.542969 C 5.132812 57.171875 5.523438 57.730469 5.980469 58.066406 C 6.238281 58.253906 6.515625 58.367188 6.800781 58.351562 C 8.054688 58.273438 8.625 57.65625 9.230469 56.820312 C 9.308594 56.707031 9.441406 56.648438 9.578125 56.660156 C 11.980469 56.871094 14.359375 56.625 16.464844 55.503906 C 18.566406 54.382812 20.386719 52.386719 21.6875 49.128906 C 21.75 48.976562 21.902344 48.878906 22.066406 48.886719 C 22.230469 48.894531 22.371094 49.003906 22.417969 49.164062 C 22.738281 50.246094 23.046875 51.039062 23.359375 51.460938 C 23.421875 51.542969 23.480469 51.609375 23.539062 51.652344 C 23.558594 51.664062 23.570312 51.683594 23.589844 51.679688 C 23.640625 51.664062 23.679688 51.613281 23.730469 51.554688 C 23.820312 51.441406 23.90625 51.28125 24 51.078125 C 24.308594 50.375 24.613281 49.191406 24.914062 47.457031 C 24.941406 47.304688 25.054688 47.183594 25.207031 47.144531 C 25.355469 47.109375 25.511719 47.167969 25.605469 47.289062 C 25.824219 47.578125 26.03125 47.855469 26.25 48.066406 C 26.355469 48.167969 26.460938 48.253906 26.570312 48.304688 Z M 26.570312 48.304688 "/></g><g clip-rule="nonzero" clip-path="url(#064249ef0a)"><path style=" stroke:none;fill-rule:evenodd;fill:#e4508a;fill-opacity:1;" d="M 33.496094 20.34375 C 39.003906 20.261719 43.472656 24.308594 45.214844 28.664062 C 46.398438 31.621094 46.3125 34.714844 44.523438 36.789062 C 44.394531 36.933594 44.175781 36.964844 44.015625 36.855469 C 41.144531 34.917969 37.628906 34.308594 33.550781 34.839844 C 33.550781 34.839844 33.546875 34.839844 33.542969 34.839844 C 30.710938 35.152344 28.59375 34.476562 27.175781 33.292969 C 25.734375 32.09375 25.007812 30.355469 25.007812 28.535156 C 25.007812 24.96875 27.800781 21.042969 33.453125 20.347656 C 33.46875 20.34375 33.480469 20.34375 33.496094 20.34375 Z M 33.527344 21.117188 C 28.378906 21.757812 25.78125 25.28125 25.78125 28.535156 C 25.78125 30.128906 26.410156 31.648438 27.671875 32.699219 C 28.957031 33.773438 30.886719 34.351562 33.457031 34.070312 C 37.601562 33.53125 41.1875 34.136719 44.148438 36.019531 C 45.550781 34.15625 45.515625 31.496094 44.496094 28.949219 C 42.863281 24.867188 38.691406 21.050781 33.527344 21.117188 Z M 33.527344 21.117188 "/></g><path style=" stroke:none;fill-rule:evenodd;fill:#e4508a;fill-opacity:1;" d="M 15.628906 23.234375 C 15.65625 23.203125 15.671875 23.167969 15.699219 23.140625 C 15.710938 23.128906 15.730469 23.117188 15.746094 23.109375 C 15.761719 23.101562 15.777344 23.09375 15.796875 23.085938 C 15.8125 23.078125 15.832031 23.074219 15.851562 23.074219 C 15.867188 23.070312 15.886719 23.070312 15.90625 23.070312 C 15.925781 23.070312 15.945312 23.074219 15.960938 23.078125 C 15.960938 23.078125 16.015625 23.097656 16.015625 23.097656 C 16.035156 23.109375 16.050781 23.117188 16.066406 23.128906 C 16.082031 23.140625 16.097656 23.15625 16.109375 23.167969 C 16.121094 23.183594 16.132812 23.199219 16.140625 23.214844 C 16.148438 23.230469 16.15625 23.246094 16.164062 23.265625 C 16.171875 23.28125 16.175781 23.300781 16.175781 23.320312 C 16.179688 23.339844 16.179688 23.355469 16.179688 23.375 C 16.179688 23.394531 16.175781 23.414062 16.171875 23.433594 C 16.160156 23.46875 16.160156 23.46875 16.140625 23.503906 C 15.90625 23.917969 15.53125 24.082031 15.105469 23.996094 C 14.96875 23.96875 14.621094 23.882812 14.136719 23.46875 C 14.042969 23.390625 13.972656 23.324219 13.949219 23.300781 C 13.9375 23.289062 13.9375 23.292969 13.929688 23.28125 C 13.921875 23.273438 13.890625 23.234375 13.898438 23.171875 C 13.902344 23.144531 13.914062 23.121094 13.914062 23.117188 C 13.914062 23.117188 13.929688 23.09375 13.929688 23.09375 C 13.9375 23.085938 13.945312 23.078125 13.953125 23.074219 C 13.960938 23.066406 14 23.035156 14.058594 23.042969 C 14.089844 23.046875 14.109375 23.058594 14.113281 23.058594 C 14.117188 23.0625 14.121094 23.0625 14.144531 23.082031 C 14.59375 23.410156 15.050781 23.597656 15.332031 23.53125 C 15.402344 23.515625 15.457031 23.484375 15.496094 23.445312 C 15.574219 23.371094 15.613281 23.273438 15.628906 23.234375 Z M 15.628906 23.234375 Z M 15.628906 23.234375 "/><path style=" stroke:none;fill-rule:evenodd;fill:#e4508a;fill-opacity:1;" d="M 15.292969 24.664062 C 15.320312 24.636719 15.335938 24.601562 15.363281 24.574219 C 15.375 24.558594 15.390625 24.546875 15.410156 24.539062 C 15.425781 24.53125 15.441406 24.523438 15.457031 24.515625 C 15.476562 24.507812 15.496094 24.503906 15.511719 24.5 C 15.53125 24.5 15.550781 24.496094 15.570312 24.496094 C 15.585938 24.5 15.605469 24.5 15.625 24.503906 C 15.625 24.503906 15.679688 24.523438 15.679688 24.523438 C 15.695312 24.535156 15.714844 24.542969 15.730469 24.554688 C 15.746094 24.566406 15.761719 24.578125 15.773438 24.59375 C 15.785156 24.605469 15.796875 24.621094 15.804688 24.636719 C 15.816406 24.652344 15.824219 24.671875 15.828125 24.6875 C 15.835938 24.707031 15.839844 24.722656 15.84375 24.742188 C 15.847656 24.761719 15.847656 24.78125 15.847656 24.796875 C 15.84375 24.863281 15.820312 24.90625 15.816406 24.917969 C 15.476562 25.5625 14.953125 25.613281 14.765625 25.621094 C 14.214844 25.632812 13.625 25.285156 13.164062 24.757812 C 13.148438 24.738281 13.144531 24.734375 13.140625 24.730469 C 13.136719 24.722656 13.109375 24.679688 13.121094 24.621094 C 13.128906 24.59375 13.140625 24.574219 13.144531 24.570312 C 13.144531 24.570312 13.164062 24.546875 13.164062 24.546875 C 13.171875 24.539062 13.175781 24.53125 13.1875 24.527344 C 13.195312 24.523438 13.234375 24.496094 13.296875 24.507812 C 13.324219 24.515625 13.34375 24.527344 13.347656 24.53125 C 13.351562 24.53125 13.355469 24.535156 13.378906 24.558594 C 13.941406 25.074219 14.578125 25.289062 14.964844 25.078125 C 15.167969 24.964844 15.253906 24.765625 15.292969 24.664062 Z M 15.292969 24.664062 L 15.296875 24.664062 C 15.296875 24.664062 15.292969 24.664062 15.292969 24.664062 Z M 15.292969 24.664062 "/><path style=" stroke:none;fill-rule:evenodd;fill:#e4508a;fill-opacity:1;" d="M 16.445312 19.6875 C 16.632812 17.800781 17.6875 16.859375 18.769531 16.769531 C 19.859375 16.675781 21.039062 17.4375 21.480469 19.078125 C 21.503906 19.171875 21.484375 19.269531 21.421875 19.34375 C 21.359375 19.414062 21.265625 19.453125 21.171875 19.445312 C 19.601562 19.285156 18.148438 19.425781 16.847656 19.984375 C 16.753906 20.023438 16.648438 20.011719 16.5625 19.953125 C 16.480469 19.890625 16.4375 19.792969 16.445312 19.6875 Z M 17.097656 19.265625 C 18.230469 18.871094 19.46875 18.742188 20.789062 18.828125 C 20.375 17.796875 19.589844 17.28125 18.820312 17.34375 C 18.046875 17.410156 17.347656 18.058594 17.097656 19.265625 Z M 17.097656 19.265625 "/><path style=" stroke:none;fill-rule:evenodd;fill:#e4508a;fill-opacity:1;" d="M 41.390625 34.800781 C 41.367188 34.957031 41.222656 35.066406 41.066406 35.042969 C 40.910156 35.023438 40.800781 34.878906 40.820312 34.722656 C 40.949219 33.808594 41.121094 33.199219 41.320312 32.808594 C 41.476562 32.5 41.65625 32.308594 41.84375 32.191406 C 42.164062 31.988281 42.523438 31.996094 42.917969 32.097656 C 43.226562 32.175781 43.558594 32.3125 43.914062 32.386719 C 44.363281 32.480469 44.851562 32.460938 45.351562 31.972656 C 45.464844 31.863281 45.648438 31.867188 45.757812 31.980469 C 45.867188 32.09375 45.863281 32.273438 45.75 32.382812 C 44.863281 33.25 44.007812 33.039062 43.246094 32.796875 C 43.011719 32.71875 42.785156 32.640625 42.578125 32.613281 C 42.421875 32.589844 42.277344 32.59375 42.144531 32.675781 C 41.996094 32.769531 41.867188 32.953125 41.75 33.25 C 41.605469 33.605469 41.488281 34.105469 41.390625 34.800781 Z M 41.390625 34.800781 "/><path style=" stroke:none;fill-rule:evenodd;fill:#e4508a;fill-opacity:1;" d="M 19.421875 20.503906 C 21.714844 20.503906 23.59375 22.582031 23.59375 25.167969 C 23.59375 27.75 21.714844 29.832031 19.421875 29.832031 C 17.128906 29.832031 15.246094 27.75 15.246094 25.167969 C 15.246094 22.582031 17.128906 20.503906 19.421875 20.503906 Z M 19.421875 21.09375 C 17.433594 21.09375 15.839844 22.929688 15.839844 25.167969 C 15.839844 27.40625 17.433594 29.238281 19.421875 29.238281 C 21.410156 29.238281 23.003906 27.40625 23.003906 25.167969 C 23.003906 22.929688 21.410156 21.09375 19.421875 21.09375 Z M 19.421875 21.09375 "/><path style=" stroke:none;fill-rule:evenodd;fill:#e4508a;fill-opacity:1;" d="M 41.410156 25.804688 C 41.851562 25.570312 42.476562 25.835938 42.789062 26.429688 C 43.101562 27.019531 42.96875 27.6875 42.527344 27.917969 C 42.082031 28.152344 41.457031 27.886719 41.144531 27.296875 C 40.832031 26.707031 40.964844 26.039062 41.410156 25.804688 Z M 41.53125 26.039062 C 41.40625 26.105469 41.320312 26.222656 41.277344 26.363281 C 41.199219 26.597656 41.234375 26.898438 41.378906 27.171875 C 41.527344 27.449219 41.753906 27.644531 41.988281 27.714844 C 42.132812 27.757812 42.277344 27.753906 42.402344 27.6875 C 42.527344 27.621094 42.613281 27.503906 42.660156 27.363281 C 42.734375 27.128906 42.703125 26.828125 42.554688 26.550781 C 42.410156 26.273438 42.179688 26.082031 41.945312 26.011719 C 41.800781 25.96875 41.65625 25.972656 41.53125 26.039062 Z M 41.53125 26.039062 "/><path style=" stroke:none;fill-rule:nonzero;fill:#e4508a;fill-opacity:1;" d="M 23.292969 25.746094 C 23.265625 26.167969 23.160156 26.570312 22.984375 26.953125 C 22.804688 27.335938 22.5625 27.667969 22.261719 27.949219 C 21.957031 28.230469 21.617188 28.4375 21.234375 28.578125 C 20.855469 28.714844 20.464844 28.769531 20.0625 28.746094 C 19.660156 28.71875 19.28125 28.613281 18.921875 28.425781 C 18.5625 28.242188 18.25 27.988281 17.984375 27.671875 C 17.722656 27.351562 17.527344 26.992188 17.398438 26.589844 C 17.269531 26.191406 17.21875 25.777344 17.246094 25.351562 C 17.273438 24.929688 17.378906 24.527344 17.558594 24.144531 C 17.734375 23.761719 17.976562 23.433594 18.28125 23.152344 C 18.582031 22.871094 18.925781 22.660156 19.304688 22.519531 C 19.6875 22.382812 20.078125 22.328125 20.476562 22.351562 C 20.878906 22.378906 21.257812 22.484375 21.617188 22.671875 C 21.976562 22.859375 22.289062 23.109375 22.554688 23.429688 C 22.816406 23.746094 23.011719 24.105469 23.140625 24.507812 C 23.269531 24.910156 23.320312 25.320312 23.292969 25.746094 Z M 23.292969 25.746094 "/><path style=" stroke:none;fill-rule:nonzero;fill:#e4508a;fill-opacity:1;" d="M 31.148438 23.53125 C 31.148438 23.6875 31.09375 23.824219 30.984375 23.9375 C 30.875 24.050781 30.742188 24.105469 30.585938 24.105469 C 30.429688 24.105469 30.296875 24.050781 30.1875 23.9375 C 30.078125 23.824219 30.023438 23.6875 30.023438 23.53125 C 30.023438 23.371094 30.078125 23.234375 30.1875 23.121094 C 30.296875 23.011719 30.429688 22.953125 30.585938 22.953125 C 30.742188 22.953125 30.875 23.011719 30.984375 23.121094 C 31.09375 23.234375 31.148438 23.371094 31.148438 23.53125 Z M 31.148438 23.53125 "/><g clip-rule="nonzero" clip-path="url(#bbe7e6fb21)"><path style="fill:none;stroke-width:2;stroke-linecap:butt;stroke-linejoin:miter;stroke:#ffffff;stroke-opacity:1;stroke-miterlimit:4;" d="M 0.359293 0.931529 C 7.141767 3.54216 12.759092 3.538643 17.20555 0.935828 " transform="matrix(0.264515,0.687214,-0.687214,0.264515,8.345903,25.959811)"/></g><path style="fill:none;stroke-width:1;stroke-linecap:round;stroke-linejoin:miter;stroke:#e4508a;stroke-opacity:1;stroke-miterlimit:4;" d="M 0.71978 0.713617 C 8.405328 9.857102 16.091973 9.822641 23.779669 0.617862 " transform="matrix(0.515052,0.508971,-0.508971,0.515052,7.976861,23.148915)"/><path style="fill:none;stroke-width:1;stroke-linecap:butt;stroke-linejoin:miter;stroke:#ffffff;stroke-opacity:1;stroke-miterlimit:4;" d="M 0.357171 1.235144 C 1.310543 0.255697 4.81293 0.255795 10.864332 1.235437 " transform="matrix(0.71938,0.157239,-0.157239,0.71938,18.60524,36.047489)"/><g clip-rule="nonzero" clip-path="url(#f8e46e027d)"><g clip-rule="nonzero" clip-path="url(#becd3149f4)"><path style="fill:none;stroke-width:6;stroke-linecap:butt;stroke-linejoin:miter;stroke:#e4508a;stroke-opacity:1;stroke-miterlimit:4;" d="M 35.92043 -0.00000266667 C 16.080537 -0.00000266667 0.00173638 16.084103 0.00173638 35.923995 C 0.00173638 55.758583 16.080537 71.842689 35.92043 71.842689 C 55.760322 71.842689 71.844428 55.758583 71.844428 35.923995 C 71.844428 16.084103 55.760322 -0.00000266667 35.92043 -0.00000266667 Z M 35.92043 -0.00000266667 " transform="matrix(0.736364,0,0,0.736364,0.490909,0.00000196364)"/></g></g></g></svg>